# xmcd
#
# Track frame offsets: 
#        150
#        21547
#        39205
#        58022
#        75597
#        85680
#        101755
#        118232
#        137345
#        153062
#        169665
#        191200
#
# Disc length: 2683 seconds
#
# Revision: 0
# Processed by: cddbd v1.5.2PL0 Copyright (c) Steve Scherf et al.
# Submitted via: ExactAudioCopy v0.95b4
#
DISCID=920a790c
DTITLE=Gregory Abbot - One World!
DYEAR=1994
DGENRE=R&B
TTITLE0=Seasons Change
TTITLE1=Handyman
TTITLE2=Do The Caribbean
TTITLE3=I Can See Clearly
TTITLE4=Without You
TTITLE5=Carefree Life
TTITLE6=Ain't No Sunshine
TTITLE7=Soul Food
TTITLE8=Three Little Birds (duet with Phoebe Snow)
TTITLE9=One World! (One Heart, One Mind)
TTITLE10=Shake You Down (Live Version)
TTITLE11=Sin Ti (Without you - Spanish Version)
EXTD=
EXTT0=
EXTT1=
EXTT2=
EXTT3=
EXTT4=
EXTT5=
EXTT6=
EXTT7=
EXTT8=
EXTT9=
EXTT10=
EXTT11=
PLAYORDER=
